<?xml version="1.0" encoding="UTF-8"?>
<svg id="uuid-e863366c-c4f5-442f-a0ce-f3f57c7e660b" data-name="Calque 1" xmlns="http://www.w3.org/2000/svg" width="114.7" height="78.4" viewBox="0 0 114.7 78.4">
  <path d="M51.5,0l-11.2,35.9h-7.9l-6.7-22-6.7,22h-7.9L0,0h8.9l6.4,22L22.2,0h7l7,22L42.7,0h8.9-.1Z" style="fill: #000; stroke-width: 0px;"/>
  <path d="M65.2,0v35.9h-8.3V0h8.3Z" style="fill: #000; stroke-width: 0px;"/>
  <path d="M102.7,0v35.9h-6.4l-16.2-19.7v19.7h-8.3V0h6.4l16.2,20.2V0h8.3Z" style="fill: #000; stroke-width: 0px;"/>
  <path d="M51.1,68.4c0,6-4.5,10-12.1,10h-16.9v-35.9h15.9c7.3,0,11.6,3.7,11.6,9.6s-1.7,6.8-4.7,7.9c4.1,1,6.1,4.6,6.1,8.5l.1-.1ZM30.4,49.8v7.5h6.3c3.2,0,4.9-1.7,4.9-4s-1.7-3.5-4.9-3.5h-6.3ZM42.9,67.2c0-2.2-1.7-3.5-4.9-3.5h-7.7v7.2h7.5c3.5,0,5-1.6,5-3.8h0l.1.1Z" style="fill: #000; stroke-width: 0px;"/>
  <path d="M65.2,35.9v42.5h-8.3v-30.6l8.3-11.9Z" style="fill: #000; stroke-width: 0px;"/>
  <path d="M102.7,42.5h-31v8.3h17.9l-17.9,21.1v6.5h31v-8.3h-17.9l17.9-22.3v-5.4.1Z" style="fill: #000; stroke-width: 0px;"/>
  <path d="M114.7,2.7c0,1.5-1.2,2.8-2.7,2.8s-2.8-1.2-2.8-2.7,1.2-2.8,2.7-2.8h0c1.5,0,2.7,1.1,2.7,2.6h0l.1.1ZM114.1,2.7c0-1.2-.9-2.1-2.1-2.1s-2.1.9-2.1,2.1.9,2.1,2.1,2.1h0c1.1,0,2.1-.9,2.1-2.1ZM112.5,3l.6.8h-.6l-.5-.7h-.4v.7h-.5V1.4h1c.5,0,.9.3.9.8h0c0,.3-.2.6-.5.7h0v.1ZM111.6,2.6h.5c.2,0,.4-.1.4-.3s-.1-.4-.3-.4h-.6v.8-.1Z" style="fill: #000; stroke-width: 0px;"/>
</svg>