<svg  id="uuid-03079c9a-e4f0-4634-9972-9215010b6a27" data-name="Calque 1" xmlns="http://www.w3.org/2000/svg" width="114.74" height="78.4" viewBox="0 0 114.74 78.4">
  <path d="M51.53.06l-11.17,35.87h-7.93l-6.66-22.02-6.72,22.02h-7.92L0,.06h8.87l6.41,22.04L22.25.06h7.04l7.03,22.04L42.66.06h8.86Z" style="fill: #fff; stroke-width: 0px;"/>
  <path d="M65.23.06v35.87h-8.32V.06h8.32Z" style="fill: #fff; stroke-width: 0px;"/>
  <path d="M102.73.07v35.87h-6.44l-16.19-19.71v19.71h-8.33V.06h6.39l16.25,20.18V.07h8.32Z" style="fill: #fff; stroke-width: 0px;"/>
  <path d="M51.08,68.41c0,5.97-4.51,9.99-12.09,9.99h-16.94v-35.93h15.95c7.33,0,11.59,3.7,11.59,9.56,0,3.33-1.73,6.76-4.66,7.87,4.11.95,6.14,4.65,6.14,8.51ZM30.38,49.76v7.5h6.34c3.17,0,4.9-1.69,4.9-4.02s-1.69-3.49-4.9-3.49h-6.34ZM42.91,67.25c0-2.22-1.73-3.49-4.85-3.49h-7.68v7.24h7.53c3.46,0,5-1.64,5-3.75h0Z" style="fill: #fff; stroke-width: 0px;"/>
  <path d="M65.23,35.94v42.46h-8.32v-30.59l8.32-11.87Z" style="fill: #fff; stroke-width: 0px;"/>
  <path d="M102.73,42.46h-30.96v8.32h17.9l-17.9,21.1v6.51h30.96v-8.32h-17.9l17.9-22.26v-5.35Z" style="fill: #fff; stroke-width: 0px;"/>
  <path d="M114.74,2.7c.03,1.52-1.18,2.78-2.7,2.81-1.52.03-2.78-1.18-2.81-2.7S110.41.03,111.93,0c.02,0,.04,0,.06,0,1.49-.03,2.72,1.14,2.75,2.63,0,.02,0,.05,0,.07ZM114.08,2.7c.01-1.16-.92-2.11-2.08-2.12-1.16-.01-2.11.92-2.12,2.08-.01,1.16.92,2.11,2.08,2.12,0,0,.01,0,.02,0,1.15,0,2.08-.93,2.1-2.08ZM112.53,3.01l.61.82h-.61l-.54-.75h-.41v.75h-.49V1.41h1.03c.47-.05.9.3.95.77,0,.03,0,.05,0,.08,0,.34-.22.64-.54.75h0ZM111.58,2.64h.54c.21.03.41-.12.44-.33s-.12-.41-.33-.44c-.04,0-.07,0-.11,0h-.54v.77Z" style="fill: #fff; stroke-width: 0px;"/>
</svg>